# xmcd
#
# Track frame offsets:
#	150
#	16345
#	31907
#	47837
#	62857
#	78350
#	91975
#	106835
#	122050
#	133502
#	149317
#	168785
#	184005
#	200955
#	219942
#	236782
#
# Disc length: 3379 seconds
#
# Revision: 1
# Processed by: cddbd v1.5.1PL0 Copyright (c) Steve Scherf et al.
# Submitted via: CDex 1.50Beta5
#
DISCID=db0d3110
DTITLE=石川さゆり - 石川さゆり大全集
DYEAR=1900
DGENRE=Other
TTITLE0=石川さゆり/かくれんぼ
TTITLE1=石川さゆり/青い月夜の散歩道
TTITLE2=石川さゆり/おもいで
TTITLE3=石川さゆり/いつでも初恋
TTITLE4=石川さゆり/泣き虫列車
TTITLE5=石川さゆり/白い手袋ささの舟
TTITLE6=石川さゆり/小さな秘密
TTITLE7=石川さゆり/あなたの私
TTITLE8=石川さゆり・潮 哲也/青い山脈
TTITLE9=石川さゆり/私でよければ
TTITLE10=石川さゆり/霧の別れ
TTITLE11=石川さゆり/十九の純情
TTITLE12=石川さゆり/あいあい傘
TTITLE13=石川さゆり/花供養
TTITLE14=石川さゆり/津軽海峡・冬景色
TTITLE15=石川さゆり/能登半島
EXTD=
EXTT0=
EXTT1=
EXTT2=
EXTT3=
EXTT4=
EXTT5=
EXTT6=
EXTT7=
EXTT8=
EXTT9=
EXTT10=
EXTT11=
EXTT12=
EXTT13=
EXTT14=
EXTT15=
PLAYORDER=
